<svg fill="#fc7f7f" height="800" stroke="#fc7f7f" viewBox="0 0 512 512" width="800" xmlns="http://www.w3.org/2000/svg"><g fill="#fc7f7f"><path d="m280.211 129.456c-7.121-3.287-15.39-5.124-24.216-5.168h-.265c-11.732.026-22.492 3.154-30.868 8.8-4.178 2.844-7.774 6.342-10.415 10.548-2.633 4.188-4.25 9.152-4.258 14.373l-.159 39.19v.106c-.009 5.221 1.59 10.204 4.214 14.409 3.948 6.342 10.001 11.104 17.103 14.408 7.12 3.296 15.39 5.124 24.216 5.168h.035.221c11.732-.017 22.501-3.154 30.876-8.798 4.178-2.836 7.774-6.344 10.407-10.548 2.633-4.188 4.249-9.153 4.267-14.374l.158-39.189v-.035-.072c.009-5.22-1.598-10.203-4.214-14.408-3.957-6.335-10.008-11.106-17.102-14.41zm3.357 68.043c-.018 1.661-.468 3.242-1.564 5.009-1.608 2.614-4.841 5.459-9.434 7.553-4.568 2.094-10.398 3.437-16.75 3.428h-.089-.097c-8.499-.018-16.052-2.474-20.946-5.858-2.456-1.679-4.232-3.542-5.309-5.3-1.087-1.768-1.538-3.366-1.546-5.027v-.009-.026l.062-16.158c1.652 1.051 3.392 2.014 5.23 2.853 6.661 3.057 14.489 4.779 22.872 4.779 10.486-.018 20.089-2.703 27.634-7.368zm.159-39.19-.035 8.649c-2.183 2.597-5.398 5.035-9.462 6.9-5.072 2.332-11.388 3.764-18.235 3.754-9.126.018-17.307-2.553-22.863-6.352-2.13-1.449-3.861-3.057-5.177-4.718l.035-8.463c.018-1.661.468-3.242 1.555-5.001 1.608-2.614 4.842-5.468 9.436-7.553 4.576-2.103 10.398-3.437 16.75-3.428h.159.026c8.508.008 16.061 2.473 20.947 5.848 2.456 1.679 4.231 3.542 5.318 5.301 1.087 1.767 1.537 3.365 1.546 5.026z"/><path d="m101.627 75.618c.017-.017.044-.017.061-.035l.406-.282z"/><path d="m421.345 101.539c-.703-4.832-2.381-9.365-4.837-13.304l-.239-.38.234.38c-4.832-7.704-12.028-13.226-20.058-16.936l-.013-.009c-8.093-3.702-17.325-5.68-27.078-5.689h-.004c-6.427 0-12.531.998-18.274 2.632l-42.542-20.178c-.212-6.183-2.103-11.961-5.102-16.82-4.766-7.678-11.86-13.234-19.812-17.016l-.371-.176.354.176c-8.009-3.763-17.166-5.848-26.874-5.98l-.014 1.007.004-1.007-.875-.009h-.052c-12.793.026-24.728 3.392-34.327 9.806l-.013.009c-4.793 3.233-9.077 7.323-12.302 12.394-3.172 5.018-5.204 11.025-5.34 17.457l-45.32 21.486c-6.802-2.421-14.232-3.772-22.072-3.782h-.014c-12.96.026-25.037 3.472-34.715 9.983l-.075.054c-4.833 3.286-9.148 7.456-12.364 12.606l.685-1.096-.68 1.088c-2.968 4.735-4.85 10.389-5.142 16.414l-84.113 39.869v237.885l255.995 121.367 256.005-121.367v-237.885zm-79.797 6.405c.017-1.661.468-3.242 1.554-5.001 1.21-1.969 3.34-4.072 6.273-5.884l.336.159 4.594-1.943c4.197-1.776 9.382-2.907 15.045-2.898 8.101-.027 15.266 2.314 19.736 5.397 2.244 1.52 3.8 3.172 4.692 4.621.892 1.466 1.201 2.632 1.21 3.852v10.893c-1.988 1.793-4.47 3.436-7.412 4.779-5.072 2.332-11.388 3.764-18.226 3.764-9.135.018-17.316-2.562-22.872-6.361-2.014-1.37-3.666-2.88-4.956-4.452zm-.159 39.207v-.017l.07-17.811c1.582.999 3.251 1.9 5.009 2.712 6.661 3.057 14.498 4.771 22.881 4.78 10.583-.018 20.266-2.756 27.846-7.5l-.08 18.048c-.008 1.661-.468 3.242-1.554 5-1.608 2.616-4.842 5.469-9.435 7.563-4.568 2.094-10.398 3.428-16.751 3.428h-.088-.098c-8.498-.018-16.052-2.474-20.946-5.858-2.456-1.678-4.232-3.543-5.309-5.3-1.086-1.776-1.537-3.366-1.546-5.027v-.018zm-110.828-98.601c.026-1.21.336-2.358 1.229-3.79 1.307-2.12 4.151-4.682 8.383-6.59 4.197-1.917 9.656-3.162 15.629-3.162l.573.008c8.066.08 15.169 2.492 19.604 5.602 2.226 1.537 3.763 3.207 4.647 4.655.901 1.485 1.201 2.651 1.21 3.87v.035l-.115 11.114c-1.935 1.748-4.338 3.357-7.174 4.69-5.026 2.377-11.29 3.878-18.102 3.958h-.017l-.627.009c-8.976.009-17.025-2.491-22.502-6.201-1.059-.708-1.996-1.484-2.862-2.262zm-2.483 39.066v-.035l.212-14.834c1.573.981 3.234 1.874 4.966 2.669 6.581 2.985 14.293 4.655 22.546 4.655h.786.008c10.434-.15 19.966-2.942 27.432-7.66l-.23 16.176c-.044 1.635-.495 3.181-1.573 4.894-1.608 2.562-4.788 5.345-9.302 7.378-4.496 2.04-10.222 3.339-16.458 3.33l-.795-.009c-8.455-.123-15.937-2.65-20.787-6.06-2.439-1.696-4.197-3.578-5.275-5.344-1.077-1.776-1.519-3.374-1.528-5.027v-.133zm-117.303 18.632c.009-1.22.318-2.386 1.21-3.852 1.316-2.165 4.214-4.806 8.516-6.768 4.276-1.97 9.833-3.26 15.911-3.25 6.759-.018 12.845 1.598 17.307 3.966l4.93 2.597.619-.291c1.554 1.307 2.738 2.668 3.542 3.958 1.086 1.776 1.528 3.366 1.537 5.036v.035l-.027 7.085c-2.182 2.703-5.468 5.239-9.674 7.156-5.07 2.332-11.388 3.764-18.234 3.764-9.126.018-17.307-2.562-22.864-6.361-1.024-.689-1.934-1.44-2.774-2.2v-10.875zm-2.315 40.409v-.018l.071-17.316c1.582.999 3.25 1.9 5.009 2.712 6.661 3.057 14.488 4.771 22.872 4.78 10.584-.018 20.275-2.756 27.855-7.5l-.08 17.554c-.009 1.661-.46 3.242-1.555 5-1.608 2.615-4.841 5.469-9.434 7.563-4.577 2.094-10.399 3.428-16.75 3.428h-.186c-8.499-.018-16.052-2.474-20.946-5.858-2.456-1.678-4.232-3.543-5.31-5.3-1.086-1.776-1.537-3.366-1.546-5.027zm136.412 322.209-218.095-103.39v-193.465l218.096 103.39v193.465zm11.123 5.283-.653-.318h1.316zm0-218.096-214.368-101.631 49.094-23.279-.062 15.425v.106c-.009 5.222 1.59 10.204 4.214 14.409 3.949 6.334 10.001 11.104 17.104 14.409 7.111 3.286 15.381 5.124 24.216 5.167h.035.221c11.732-.026 22.492-3.154 30.867-8.808 4.188-2.827 7.784-6.334 10.416-10.548 2.633-4.188 4.249-9.152 4.266-14.365l.159-39.19v-.044-.062c.009-5.231-1.598-10.204-4.214-14.418-.566-.883-1.166-1.74-1.802-2.571l34.322-16.273-.186 12.943v.423c-.009 5.196 1.564 10.142 4.152 14.33 3.896 6.325 9.868 11.123 16.901 14.48 7.05 3.348 15.248 5.274 24.029 5.424l1.104.009c11.547-.018 22.148-3.066 30.443-8.596 4.135-2.783 7.704-6.228 10.346-10.363 2.632-4.126 4.275-9.011 4.347-14.161l.202-14.365 29.94 14.196c-1.379 1.493-2.651 3.075-3.737 4.797-2.632 4.188-4.249 9.152-4.258 14.373l-.159 39.19v.106c-.017 5.221 1.59 10.204 4.214 14.409 3.95 6.334 10.001 11.104 17.095 14.408 7.12 3.286 15.39 5.125 24.224 5.168h.036.22c11.732-.026 22.502-3.154 30.877-8.808 4.178-2.827 7.774-6.343 10.407-10.548 2.633-4.188 4.249-9.152 4.267-14.365l.08-19.259 55.366 26.248z"/></g></svg>